<svg width="32" height="32" viewBox="0 0 32 32" fill="none" xmlns="http://www.w3.org/2000/svg">
<g clip-path="url(#clip0_19_2)">
<path d="M3.67259 7.02841H16.664V3.14986C16.664 2.71559 17.0158 2.36334 17.4501 2.36334H28.3272C28.7615 2.36334 29.1137 2.71559 29.1137 3.14986V28.0638H30.946C31.9801 28.0638 31.9801 29.6364 30.946 29.6364C20.9821 29.6364 11.0177 29.6364 1.05376 29.6364C0.0196786 29.6364 0.0196786 28.0638 1.05376 28.0638H2.88645V7.81455C2.88645 7.38066 3.23832 7.02841 3.67259 7.02841ZM11.7014 28.0638V24.971H9.42125V28.0638H11.7014ZM7.84859 28.0638V24.1844C7.84859 23.7506 8.20047 23.3983 8.63473 23.3983H12.488C12.9222 23.3983 13.2741 23.7506 13.2741 24.1844V28.0638H16.664V8.60107H4.45911V28.0638H7.84859ZM20.5297 5.62696H25.2476C25.6819 5.62696 26.0342 5.97884 26.0342 6.41311V20.5674C26.0342 21.0017 25.6819 21.3536 25.2476 21.3536H20.5297C20.0954 21.3536 19.7431 21.0017 19.7431 20.5674V6.41311C19.7431 5.97884 20.0954 5.62696 20.5297 5.62696ZM24.4615 7.19925H21.3158V19.7809H24.4615V7.19925ZM6.80658 15.1809H9.4016C9.83587 15.1809 10.1877 15.5331 10.1877 15.9674V18.562C10.1877 18.9963 9.83587 19.3485 9.4016 19.3485H6.80658C6.37231 19.3485 6.02006 18.9963 6.02006 18.562V15.9674C6.02006 15.5331 6.37231 15.1809 6.80658 15.1809ZM8.61508 16.7535H7.59272V17.7759H8.61508V16.7535ZM11.7215 15.1809H14.3161C14.7504 15.1809 15.1026 15.5331 15.1026 15.9674V18.562C15.1026 18.9963 14.7504 19.3485 14.3161 19.3485H11.7215C11.2872 19.3485 10.935 18.9963 10.935 18.562V15.9674C10.935 15.5331 11.2872 15.1809 11.7215 15.1809ZM13.53 16.7535H12.5076V17.7759H13.53V16.7535ZM6.80658 10.1484H9.4016C9.83587 10.1484 10.1877 10.5003 10.1877 10.9346V13.5296C10.1877 13.9638 9.83587 14.3157 9.4016 14.3157H6.80658C6.37231 14.3157 6.02006 13.9638 6.02006 13.5296V10.9346C6.02006 10.5003 6.37231 10.1484 6.80658 10.1484ZM8.61508 11.7211H7.59272V12.7431H8.61508V11.7211ZM11.7215 10.1484H14.3161C14.7504 10.1484 15.1026 10.5003 15.1026 10.9346V13.5296C15.1026 13.9638 14.7504 14.3157 14.3161 14.3157H11.7215C11.2872 14.3157 10.935 13.9638 10.935 13.5296V10.9346C10.935 10.5003 11.2872 10.1484 11.7215 10.1484ZM13.53 11.7211H12.5076V12.7431H13.53V11.7211ZM18.2366 28.0638H27.5411V3.936H18.2366V28.0638Z" fill="black"/>
</g>
<defs>
<clipPath id="clip0_19_2">
<rect width="31.9997" height="31.9997" fill="white"/>
</clipPath>
</defs>
</svg>
