<svg width="29" height="26" viewBox="0 0 29 26" fill="none" xmlns="http://www.w3.org/2000/svg">
<g clip-path="url(#clip0_15_2)">
<path fill-rule="evenodd" clip-rule="evenodd" d="M1.61111 14.4444H11.2778C12.1639 14.4444 12.8889 13.7944 12.8889 13V1.44444C12.8889 0.65 12.1639 0 11.2778 0H1.61111C0.725 0 0 0.65 0 1.44444V13C0 13.7944 0.725 14.4444 1.61111 14.4444ZM1.61111 26H11.2778C12.1639 26 12.8889 25.35 12.8889 24.5556V18.7778C12.8889 17.9833 12.1639 17.3333 11.2778 17.3333H1.61111C0.725 17.3333 0 17.9833 0 18.7778V24.5556C0 25.35 0.725 26 1.61111 26ZM17.7222 26H27.3889C28.275 26 29 25.35 29 24.5556V13C29 12.2056 28.275 11.5556 27.3889 11.5556H17.7222C16.8361 11.5556 16.1111 12.2056 16.1111 13V24.5556C16.1111 25.35 16.8361 26 17.7222 26ZM16.1111 1.44444V7.22222C16.1111 8.01667 16.8361 8.66667 17.7222 8.66667H27.3889C28.275 8.66667 29 8.01667 29 7.22222V1.44444C29 0.65 28.275 0 27.3889 0H17.7222C16.8361 0 16.1111 0.65 16.1111 1.44444Z" fill="#1D1D1D"/>
</g>
<defs>
<clipPath id="clip0_15_2">
<rect width="29" height="26" fill="white"/>
</clipPath>
</defs>
</svg>
