<svg width="32" height="32" viewBox="0 0 32 32" fill="none" xmlns="http://www.w3.org/2000/svg">
<g clip-path="url(#clip0_23_21)">
<path d="M6 1.23077C6 0.55104 6.44772 0 7 0H13C13.5523 0 14 0.55104 14 1.23077V8.61538C14 9.29511 13.5523 9.84615 13 9.84615H7C6.44772 9.84615 6 9.29511 6 8.61538V1.23077ZM19 0C18.4478 0 18 0.55104 18 1.23077V8.61538C18 9.29511 18.4478 9.84615 19 9.84615H25C25.5522 9.84615 26 9.29511 26 8.61538V1.23077C26 0.55104 25.5522 0 25 0H19ZM20 7.38462V2.46154H24V7.38462H20ZM8 24.6154C9.10456 24.6154 10 23.5134 10 22.1538C10 20.7943 9.10456 19.6923 8 19.6923C6.89544 19.6923 6 20.7943 6 22.1538C6 23.5134 6.89544 24.6154 8 24.6154ZM18 22.1538C18 23.5134 17.1046 24.6154 16 24.6154C14.8954 24.6154 14 23.5134 14 22.1538C14 20.7943 14.8954 19.6923 16 19.6923C17.1046 19.6923 18 20.7943 18 22.1538ZM24 24.6154C25.1046 24.6154 26 23.5134 26 22.1538C26 20.7943 25.1046 19.6923 24 19.6923C22.8954 19.6923 22 20.7943 22 22.1538C22 23.5134 22.8954 24.6154 24 24.6154ZM0 22.1538C0 16.716 3.58172 12.3077 8 12.3077H24C28.4182 12.3077 32 16.716 32 22.1538C32 27.5916 28.4182 32 24 32H8C3.58172 32 0 27.5916 0 22.1538ZM8 14.7692C4.6863 14.7692 2 18.0753 2 22.1538C2 26.2324 4.6863 29.5385 8 29.5385H24C27.3138 29.5385 30 26.2324 30 22.1538C30 18.0753 27.3138 14.7692 24 14.7692H8Z" fill="#212121"/>
</g>
<defs>
<clipPath id="clip0_23_21">
<rect width="32" height="32" fill="white"/>
</clipPath>
</defs>
</svg>
