<svg width="25" height="25" viewBox="0 0 25 25" fill="none" xmlns="http://www.w3.org/2000/svg">
<path d="M13.5492 18.0732C13.2438 18.4224 13.2438 18.9875 13.5492 19.3357C13.8547 19.6848 14.3492 19.6848 14.6539 19.3357L20.0438 13.175C20.2063 12.9893 20.2758 12.742 20.2648 12.4991C20.2758 12.2553 20.2063 12.0089 20.0438 11.8232L14.6539 5.6634C14.3492 5.31429 13.8539 5.31429 13.5492 5.6634C13.2438 6.01251 13.2438 6.57768 13.5492 6.92586L17.6453 11.6071H0.78125C0.35 11.6071 0 12.0071 0 12.5C0 12.9929 0.35 13.3929 0.78125 13.3929H17.6453L13.5492 18.0732ZM21.875 0H6.25C4.52422 0 3.125 1.59911 3.125 3.57143V7.14286H4.6875V3.57143C4.6875 2.58571 5.38672 1.78571 6.25 1.78571H21.875C22.7383 1.78571 23.4375 2.58571 23.4375 3.57143V21.4286C23.4375 22.4143 22.7383 23.2143 21.875 23.2143H6.25C5.38672 23.2143 4.6875 22.4152 4.6875 21.4286V17.8571H3.125V21.4286C3.125 23.4009 4.52422 25 6.25 25H21.875C23.6008 25 25 23.4009 25 21.4286V3.57143C25 1.59911 23.6008 0 21.875 0Z" fill="black"/>
</svg>
