<svg width="25" height="25" viewBox="0 0 25 25" fill="none" xmlns="http://www.w3.org/2000/svg">
<path d="M20.3125 21.4286C20.3125 22.4143 19.6133 23.2143 18.75 23.2143H3.125C2.26172 23.2143 1.5625 22.4143 1.5625 21.4286V3.57143C1.5625 2.58483 2.26172 1.78571 3.125 1.78571H18.75C19.6133 1.78571 20.3125 2.58483 20.3125 3.57143V6.25H21.875V3.57143C21.875 1.59911 20.4758 0 18.75 0H3.125C1.39922 0 0 1.59911 0 3.57143V21.4286C0 23.4009 1.39922 25 3.125 25H18.75C20.4758 25 21.875 23.4009 21.875 21.4286V18.75H20.3125V21.4286ZM24.2188 11.6071H7.3547L11.4508 6.92591C11.7563 6.57773 11.7563 6.01162 11.4508 5.66345C11.1453 5.31433 10.6508 5.31433 10.3461 5.66345L4.95625 11.8241C4.79297 12.0098 4.72345 12.2562 4.73435 12.5C4.72341 12.7437 4.79297 12.9902 4.95547 13.1759L10.3453 19.3357C10.65 19.6848 11.1453 19.6848 11.45 19.3357C11.7554 18.9875 11.7554 18.4214 11.45 18.0732L7.3547 13.3929H24.2188C24.65 13.3929 25 12.9929 25 12.5C25 12.0071 24.65 11.6071 24.2188 11.6071Z" fill="black"/>
</svg>
