<svg width="32" height="30" viewBox="0 0 32 30" fill="none" xmlns="http://www.w3.org/2000/svg">
<g clip-path="url(#clip0_15_10)">
<path d="M28.4444 23.3333H3.55555V17.7667C2.89355 17.4694 2.29193 17.0661 1.77777 16.575V23.3333C1.77777 23.7754 1.96507 24.1993 2.29847 24.5119C2.63187 24.8244 3.08405 25 3.55555 25H28.4444C28.9159 25 29.3681 24.8244 29.7015 24.5119C30.0349 24.1993 30.2222 23.7754 30.2222 23.3333V16.575C29.7118 17.0681 29.1092 17.4692 28.4444 17.7583V23.3333Z" fill="black"/>
<path d="M22.2222 18.6667C22.458 18.6667 22.6841 18.5789 22.8508 18.4226C23.0175 18.2663 23.1111 18.0543 23.1111 17.8333V13.2833H21.3333V15H12.4445V16.6667H21.3333V17.8333C21.3333 18.0543 21.427 18.2663 21.5937 18.4226C21.7604 18.5789 21.9865 18.6667 22.2222 18.6667Z" fill="black"/>
<path d="M29.3333 5H21.3333V3.65C21.324 3.11658 21.0895 2.60838 20.6814 2.23666C20.2732 1.86493 19.7246 1.65998 19.1555 1.66666H12.8444C12.2754 1.65998 11.7268 1.86493 11.3186 2.23666C10.9104 2.60838 10.676 3.11658 10.6667 3.65V5H2.66666C2.43091 5 2.20482 5.08779 2.03812 5.24407C1.87142 5.40035 1.77777 5.61232 1.77777 5.83333V12.5C1.77777 13.6051 2.24602 14.6649 3.07952 15.4463C3.91301 16.2277 5.04348 16.6667 6.22222 16.6667H8.88888V17.8333C8.88888 18.0543 8.98253 18.2663 9.14923 18.4226C9.31593 18.5789 9.54202 18.6667 9.77777 18.6667C10.0135 18.6667 10.2396 18.5789 10.4063 18.4226C10.573 18.2663 10.6667 18.0543 10.6667 17.8333V13.2833H8.88888V15H6.22222C5.51497 15 4.83669 14.7366 4.3366 14.2678C3.8365 13.7989 3.55555 13.163 3.55555 12.5V6.66666H28.4444V12.5C28.4444 13.163 28.1635 13.7989 27.6634 14.2678C27.1633 14.7366 26.485 15 25.7778 15H24.8889V16.6667H25.7778C26.9565 16.6667 28.087 16.2277 28.9205 15.4463C29.754 14.6649 30.2222 13.6051 30.2222 12.5V5.83333C30.2222 5.61232 30.1286 5.40035 29.9619 5.24407C29.7952 5.08779 29.5691 5 29.3333 5ZM19.5555 5H12.4444V3.69166C12.449 3.59512 12.4932 3.50397 12.5677 3.43721C12.6422 3.37045 12.7414 3.33323 12.8444 3.33333H19.1644C19.2146 3.33222 19.2646 3.3404 19.3114 3.35739C19.3582 3.37438 19.401 3.39986 19.4373 3.43236C19.4737 3.46486 19.5028 3.50376 19.5231 3.54682C19.5434 3.58988 19.5544 3.63627 19.5555 3.68333V5Z" fill="black"/>
</g>
<defs>
<clipPath id="clip0_15_10">
<rect width="32" height="30" fill="white"/>
</clipPath>
</defs>
</svg>
