<svg width="46" height="29" viewBox="0 0 46 29" fill="none" xmlns="http://www.w3.org/2000/svg">
<path d="M36.3759 5.20412C35.0843 3.74482 31.9585 0.743747 27.5569 0.0600409C25.9397 -0.182621 24.2945 0.320935 22.9993 1.37753C21.7062 0.383445 20.0603 -0.126622 18.4359 0.122262C12.7075 1.01289 9.10656 5.8625 8.95562 6.07232C8.39184 6.84574 8.55808 7.93316 9.32398 8.5011C9.63168 8.72951 9.99106 8.83804 10.3439 8.83804C10.8762 8.83804 11.3997 8.59386 11.7368 8.13031C11.766 8.08961 14.6255 4.22993 18.9603 3.55563C19.4962 3.48609 20.037 3.6041 20.5099 3.87997L16.33 8.1777C15.4387 9.0676 14.8853 10.1963 14.8853 11.5275C14.8853 12.7936 15.3749 13.9831 16.2624 14.8766C17.2141 15.7744 18.3928 16.2013 19.6506 16.2013C20.9084 16.2013 22.0901 15.7084 22.9792 14.8129L23.7949 13.9917L32.7218 21.2918C32.888 21.4275 32.9127 21.6718 32.7578 21.8685L30.7675 24.455C30.635 24.6178 30.3902 24.6427 30.2532 24.5319L28.6561 23.1797L26.7737 25.1874C26.6052 25.3954 26.3896 25.4452 26.2774 25.4564C26.1583 25.4677 25.9495 25.4655 25.7877 25.3321L23.4583 23.3309L22.3316 24.3913L22.1294 24.6039C21.7094 25.1217 21.1167 25.4475 20.4562 25.5155C19.7756 25.5743 19.1445 25.3889 18.6953 25.0248L12.2403 19.1459H6.9V5.29094H0V23.7836L4.6 23.7865C5.44381 23.7865 6.15034 23.3013 6.55069 22.6188H10.9092L16.4479 27.6587C17.5159 28.537 18.8241 29 20.1825 29C20.3891 29 20.598 28.991 20.8046 28.9683C21.7836 28.8666 22.7029 28.5297 23.4978 27.9916L23.5629 28.0504C24.4276 28.7649 25.5237 29.093 26.6313 28.975C27.5793 28.8756 28.4483 28.4663 29.0686 27.8645C30.5844 28.4569 32.3813 28.0341 33.4709 26.6729L35.4611 24.0864C36.7887 22.4353 36.5371 20 34.8973 18.6594L26.2508 11.5865L26.8532 10.98C27.527 10.3017 27.527 9.20239 26.8532 8.52447C26.1793 7.84612 25.0879 7.84612 24.4137 8.52447L20.5419 12.4174C20.0675 12.9021 19.2409 12.9021 18.7666 12.4174C18.5285 12.18 18.3982 11.8634 18.3982 11.5268C18.3982 11.1876 18.5284 10.871 18.7778 10.6202L24.9526 4.27949C25.514 3.7119 26.2844 3.42938 27.0326 3.55382C31.3271 4.22088 34.2345 8.09233 34.2632 8.13284C34.4852 8.43346 34.7853 8.63538 35.1142 8.73885H39.1V21.4073C39.1 22.6857 40.13 23.7261 41.3353 23.7261L46 23.7908V5.27647L36.3759 5.20412ZM3.45 21.4756C2.82109 21.4756 2.3 20.9514 2.3 20.3187C2.3 19.6766 2.82109 19.1619 3.45 19.1619C4.07891 19.1619 4.6 19.6813 4.6 20.3252C4.6 20.9547 4.07891 21.4756 3.45 21.4756ZM42.55 21.4756C41.9211 21.4756 41.4 20.9514 41.4 20.3187C41.4 19.6766 41.9211 19.1619 42.55 19.1619C43.1789 19.1619 43.7 19.6768 43.7 20.3187C43.7 20.9547 43.1825 21.4756 42.55 21.4756Z" fill="black"/>
</svg>
