<svg width="25" height="26" viewBox="0 0 25 26" fill="none" xmlns="http://www.w3.org/2000/svg">
<path d="M18.5957 16.315C18.582 16.2114 18.5019 16.0814 18.416 15.9941C18.1699 15.7422 17.6289 15.6102 16.8046 15.598C16.246 15.5919 15.5742 15.6427 14.8671 15.7462C14.5507 15.5573 14.2246 15.3502 13.9687 15.1003C13.2792 14.432 12.705 13.5038 12.3457 12.482C12.3691 12.3866 12.3886 12.3033 12.4082 12.218C12.4082 12.218 12.7949 9.92672 12.6933 9.15078C12.6796 9.04516 12.6699 9.01469 12.6425 8.93141L12.6093 8.84203C12.5039 8.58812 12.2968 8.32 11.9726 8.33422L11.7812 8.32812H11.7773C11.414 8.32812 11.121 8.52109 11.0429 8.8075C10.8085 9.70938 11.0507 11.0602 11.4902 12.807L11.3769 13.0914C11.0625 13.8917 10.6679 14.6961 10.3203 15.405L10.2753 15.4964C9.90815 16.2419 9.57612 16.8756 9.27339 17.4119L8.96284 17.5825C8.9394 17.5947 8.4062 17.8892 8.2812 17.9664C7.22065 18.6266 6.51753 19.3741 6.40034 19.9672C6.36323 20.1581 6.39058 20.3998 6.58003 20.5116L6.88081 20.67C7.01167 20.737 7.15034 20.7716 7.29097 20.7716C8.04683 20.7716 8.92378 19.7925 10.1328 17.5987C11.5273 17.1275 13.1171 16.7334 14.5097 16.5181C15.5703 17.1377 16.875 17.5703 17.6992 17.5703C17.8457 17.5703 17.9726 17.5561 18.0742 17.5277C18.2324 17.483 18.3652 17.3895 18.4472 17.2636C18.6074 17.0137 18.6386 16.6684 18.5957 16.315ZM7.12691 20.1764C7.26362 19.7844 7.8105 19.0084 8.61714 18.3219C8.66792 18.2792 8.79292 18.1573 8.9062 18.0436C8.06245 19.4431 7.498 19.9997 7.12691 20.1764ZM11.9042 8.73438C12.1464 8.73438 12.2851 9.37016 12.2968 9.96734C12.3085 10.5645 12.1738 10.983 12.0078 11.2937C11.8691 10.8347 11.8027 10.1116 11.8027 9.63828C11.8027 9.63828 11.7929 8.73438 11.9042 8.73438ZM10.4785 16.8878C10.6484 16.573 10.8242 16.2398 11.0039 15.8884C11.4433 15.0252 11.7207 14.3508 11.9257 13.7962C12.3359 14.5722 12.8476 15.2323 13.4472 15.7605C13.5234 15.8255 13.6035 15.8925 13.6855 15.9595C12.4648 16.2094 11.4082 16.5161 10.4785 16.8878ZM18.1796 16.8167C18.1054 16.8634 17.8925 16.8919 17.7558 16.8919C17.3144 16.8919 16.7656 16.6827 15.998 16.3394C16.2929 16.317 16.5644 16.3048 16.8066 16.3048C17.25 16.3048 17.3808 16.3028 17.8164 16.4186C18.25 16.5344 18.2558 16.768 18.1796 16.8167Z" fill="#FF402F"/>
<path d="M20.3125 16.25C17.7236 16.25 15.625 18.4326 15.625 21.125C15.625 23.8174 17.7236 26 20.3125 26C22.9014 26 25 23.8174 25 21.125C25 18.4326 22.9014 16.25 20.3125 16.25ZM22.4379 19.7007L22.4158 19.7364L20.808 22.0598C20.701 22.2357 20.5135 22.3438 20.3125 22.3438C20.1115 22.3438 19.924 22.2357 19.8172 22.06L18.1871 19.7009C18.0838 19.5128 18.0848 19.2798 18.1891 19.0927C18.2936 18.9055 18.4879 18.7893 18.6961 18.7893H19.5312V17.4688C19.5312 17.1328 19.7941 16.8594 20.1172 16.8594H20.5078C20.8309 16.8594 21.0938 17.1328 21.0938 17.4688V18.7891H21.9289C22.1369 18.7891 22.3314 18.9053 22.4359 19.0925C22.5402 19.2796 22.5412 19.5128 22.4379 19.7007Z" fill="#FF402F"/>
<path d="M16.4063 25.5836L16.3965 25.593H16.4063V25.5836Z" fill="#FF9A30"/>
<path d="M22.2656 15.6399V15.6305L22.2559 15.6399H22.2656Z" fill="#FF9A30"/>
<path d="M21.6936 8.98686L14.015 1.0012C13.6463 0.617703 13.1557 0.40625 12.6342 0.40625H4.6875C3.61055 0.40625 2.73438 1.31747 2.73438 2.4375V23.5625C2.73438 24.6825 3.61055 25.5938 4.6875 25.5938H16.3965L15.6152 24.7812H4.6875C4.04121 24.7812 3.51562 24.2346 3.51562 23.5625V2.4375C3.51562 1.76536 4.04121 1.21875 4.6875 1.21875H12.6342C12.9473 1.21875 13.2414 1.3455 13.4627 1.57564L21.1412 9.5613C21.3592 9.78819 21.4844 10.1022 21.4844 10.423V14.818L22.2656 15.6305V10.423C22.2656 9.88061 22.0625 9.37056 21.6936 8.98686Z" fill="#FF402F"/>
<path d="M22.2559 15.6407L22.2656 15.6305L21.4844 14.818" fill="white"/>
</svg>
